<?xml version="1.0" standalone="no"?>
<!DOCTYPE svg PUBLIC "-//W3C//DTD SVG 20010904//EN"
 "http://www.w3.org/TR/2001/REC-SVG-20010904/DTD/svg10.dtd">
<svg version="1.0" xmlns="http://www.w3.org/2000/svg"
 width="640.000000pt" height="640.000000pt" viewBox="0 0 640.000000 640.000000"
 preserveAspectRatio="xMidYMid meet">

<g transform="translate(0.000000,640.000000) scale(0.100000,-0.100000)"
fill="#000000" stroke="none">
<path d="M0 3200 l0 -3200 3200 0 3200 0 0 3200 0 3200 -3200 0 -3200 0 0
-3200z m1470 2992 c88 -44 88 -43 24 -103 -119 -113 -247 -189 -379 -225 -93
-25 -256 -30 -354 -10 -104 21 -131 9 -131 -60 0 -34 36 -53 137 -71 283 -50
585 48 796 258 l67 67 27 -51 c44 -87 113 -313 134 -440 25 -150 17 -198 -44
-264 -60 -65 -143 -85 -243 -57 -17 5 -22 -1 -33 -38 -19 -64 -48 -105 -81
-117 -40 -14 -116 9 -172 52 -67 51 -65 51 -86 5 -37 -82 -110 -125 -193 -112
-93 15 -182 162 -305 505 -72 201 -90 306 -64 383 16 50 107 146 170 180 l52
28 89 -91 c96 -98 127 -112 164 -71 33 37 23 67 -50 140 l-68 68 39 11 c21 6
58 13 81 17 47 7 43 15 64 -106 13 -77 30 -100 75 -100 47 0 63 27 53 87 -4
27 -11 70 -15 97 l-7 48 104 -4 c81 -3 114 -9 149 -26z m1530 -1355 c0 -2 -10
-12 -22 -23 l-23 -19 19 23 c18 21 26 27 26 19z m-53 -70 c0 -8 -6 -14 -14
-14 -9 0 -10 4 -2 14 6 7 12 13 14 13 1 0 2 -6 2 -13z m-147 -140 c0 -2 -10
-12 -22 -23 l-23 -19 19 23 c18 21 26 27 26 19z m-403 -233 c-3 -3 -12 -4 -19
-1 -8 3 -5 6 6 6 11 1 17 -2 13 -5z m-50 -10 c-3 -3 -12 -4 -19 -1 -8 3 -5 6
6 6 11 1 17 -2 13 -5z m-74 -11 c-7 -2 -21 -2 -30 0 -10 3 -4 5 12 5 17 0 24
-2 18 -5z m1051 -39 c3 -8 2 -12 -4 -9 -6 3 -10 10 -10 16 0 14 7 11 14 -7z
m-1897 -109 c0 -8 -3 -13 -5 -10 -3 3 -12 -1 -21 -7 -10 -8 -9 -4 3 10 23 26
23 26 23 7z m1826 -30 c-3 -9 -8 -14 -10 -11 -3 3 -2 9 2 15 9 16 15 13 8 -4z
m-2223 -165 l0 -60 -60 0 -60 0 0 60 0 60 60 0 60 0 0 -60z m2160 56 c0 -2 -8
-10 -17 -17 -16 -13 -17 -12 -4 4 13 16 21 21 21 13z m2294 -58 l1 -58 -57 0
-58 0 0 60 0 61 57 -3 56 -3 1 -57z m-174 -78 l0 -40 40 0 40 0 0 -700 0 -700
-40 0 -40 0 0 -50 0 -50 -2104 0 -2105 0 -3 48 -3 47 -42 3 -43 3 0 700 0 699
40 0 40 0 0 40 0 40 2110 0 2110 0 0 -40z m-4377 -991 c-5 -5 -6 157 -3 359
l5 367 3 -359 c1 -198 -1 -363 -5 -367z m-416 545 c-3 -3 -12 -4 -19 -1 -8 3
-5 6 6 6 11 1 17 -2 13 -5z m-269 -11 c-10 -2 -26 -2 -35 0 -10 3 -2 5 17 5
19 0 27 -2 18 -5z m109 -619 c-3 -3 -12 -4 -19 -1 -8 3 -5 6 6 6 11 1 17 -2
13 -5z m90 -10 c-3 -3 -12 -4 -19 -1 -8 3 -5 6 6 6 11 1 17 -2 13 -5z m116 -1
c-13 -2 -33 -2 -45 0 -13 2 -3 4 22 4 25 0 35 -2 23 -4z m472 -478 l0 -60 -57
-1 -58 -1 0 64 0 64 58 -3 57 -3 0 -60z m4448 0 l1 -60 -58 0 -58 0 0 58 c0
31 1 59 1 62 1 4 26 5 57 3 l56 -3 1 -60z m-1676 -350 c68 -20 126 -64 169
-130 l37 -55 -7 -157 c-5 -100 -12 -166 -21 -183 -35 -68 -151 -140 -248 -154
-99 -15 -348 44 -503 119 -203 98 -266 194 -193 296 67 95 325 223 539 267 70
15 171 14 227 -3z m2193 -40 c120 -32 180 -83 180 -153 0 -67 -103 -219 -213
-314 -71 -61 -201 -155 -251 -180 -111 -57 -231 -66 -317 -25 -97 45 -112 65
-164 225 -62 189 -57 227 44 335 71 77 137 103 326 131 70 10 332 -3 395 -19z
m-2837 -1000 c196 -51 488 -261 563 -405 25 -48 29 -66 29 -140 0 -131 -14
-153 -154 -254 -153 -109 -153 -109 -223 -103 -129 12 -236 96 -305 239 -150
308 -178 612 -61 663 43 18 80 18 151 0z m2938 -351 c51 -26 129 -104 155
-156 13 -26 31 -78 40 -114 17 -75 34 -282 26 -332 l-4 -32 -289 0 -289 0 -35
47 c-19 27 -49 77 -67 113 -27 55 -33 79 -36 152 -4 79 -2 93 22 140 46 94 58
103 211 158 152 54 200 59 266 24z"/>
<path d="M1369 3601 c-77 -25 -123 -68 -149 -138 -17 -45 -20 -78 -20 -197 0
-172 13 -225 67 -278 21 -20 55 -44 75 -53 53 -21 172 -20 224 4 73 33 124
119 124 210 l0 31 -65 0 -65 0 0 -35 c0 -74 -43 -115 -120 -115 -49 0 -96 37
-110 88 -13 48 -13 236 0 283 6 20 22 48 36 63 72 72 194 19 194 -84 l0 -30
65 0 c65 0 65 0 65 28 0 84 -51 171 -121 208 -38 19 -158 29 -200 15z"/>
<path d="M3690 3500 l0 -100 -70 0 -70 0 0 -55 0 -55 70 0 70 0 0 -155 c0
-152 1 -156 25 -180 23 -24 31 -25 135 -25 l110 0 0 55 0 55 -59 0 c-94 0 -91
-5 -91 131 l0 119 85 0 85 0 0 55 0 55 -85 0 -85 0 0 100 0 100 -60 0 -60 0 0
-100z"/>
<path d="M2083 3409 c-17 -5 -46 -26 -62 -46 l-31 -38 0 38 0 37 -100 0 -100
0 0 -55 0 -55 40 0 40 0 0 -125 0 -125 -45 0 -45 0 0 -55 0 -55 160 0 160 0 0
54 0 55 -52 3 -53 3 -3 75 c-6 135 16 180 88 180 44 0 68 -19 77 -61 5 -28 8
-29 64 -29 l59 0 0 48 c0 109 -94 181 -197 151z"/>
<path d="M3205 3413 c-45 -10 -77 -27 -96 -54 -24 -34 -39 -30 -39 12 l0 30
-55 -3 -55 -3 -1 -325 -1 -325 56 -3 56 -3 0 125 c0 69 4 127 10 131 5 3 16
-5 25 -19 34 -51 145 -73 218 -42 161 67 166 380 7 461 -29 14 -96 24 -125 18z
m80 -146 c82 -82 42 -222 -68 -234 -86 -10 -140 41 -140 133 0 88 45 134 132
134 36 0 49 -6 76 -33z"/>
<path d="M4313 3409 c-127 -24 -204 -136 -190 -274 16 -161 162 -251 330 -204
49 13 115 73 138 124 25 54 25 166 0 220 -46 101 -162 157 -278 134z m117
-124 c39 -20 60 -63 60 -120 0 -91 -53 -142 -138 -132 -65 7 -103 48 -110 118
-6 61 13 105 56 132 34 21 94 22 132 2z"/>
<path d="M4955 3405 c-22 -8 -52 -28 -66 -45 -28 -34 -39 -31 -39 12 0 28 -1
28 -60 28 l-60 0 0 -235 0 -235 59 0 59 0 4 153 c4 165 12 192 64 215 41 19
73 14 105 -17 l29 -29 0 -161 0 -161 61 0 60 0 -3 194 c-3 180 -5 197 -24 223
-43 58 -122 82 -189 58z"/>
<path d="M2400 3393 c-1 -5 0 -86 0 -182 1 -153 3 -178 21 -213 31 -60 70 -80
153 -76 65 4 71 6 101 41 18 20 35 37 39 37 11 0 6 -126 -6 -138 -8 -8 -49
-12 -120 -12 l-108 0 0 -55 0 -55 158 0 c149 0 160 1 178 21 18 20 19 43 22
330 l3 309 -60 0 -59 0 -4 -152 c-4 -174 -13 -200 -77 -219 -45 -13 -83 0
-108 38 -15 22 -19 53 -21 180 l-4 153 -54 0 c-30 0 -54 -3 -54 -7z"/>
</g>
</svg>
